<svg version="1.1" xmlns="http://www.w3.org/2000/svg" xmlns:xlink="http://www.w3.org/1999/xlink" width="120" height="52.288" viewBox="0,0,120,52.288"><defs><linearGradient x1="240" y1="153.856" x2="240" y2="206.144" gradientUnits="userSpaceOnUse" id="color-1"><stop offset="0" stop-color="#ff6363"/><stop offset="1" stop-color="#c30000"/></linearGradient><linearGradient x1="184.503" y1="179.9985" x2="295.496" y2="179.9985" gradientUnits="userSpaceOnUse" id="color-2"><stop offset="0" stop-color="#ff6363"/><stop offset="1" stop-color="#c30000"/></linearGradient></defs><g transform="translate(-180,-153.856)"><g data-paper-data="{&quot;isPaintingLayer&quot;:true}" fill-rule="nonzero" stroke="none" stroke-width="1" stroke-linecap="butt" stroke-linejoin="miter" stroke-miterlimit="10" stroke-dasharray="" stroke-dashoffset="0" style="mix-blend-mode: normal"><path d="M300,180c0,14.415 -11.73,26.144 -26.146,26.144h-67.711c-14.415,0 -26.143,-11.728 -26.143,-26.144c0,-14.416 11.727,-26.144 26.143,-26.144h67.711c14.416,0 26.145,11.727 26.146,26.144z" fill="url(#color-1)"/><path d="M295.496,179.998c0,11.953 -9.689,21.641 -21.642,21.641h-67.711c-11.952,0 -21.64,-9.688 -21.64,-21.641v0c0,-11.951 9.688,-21.64 21.64,-21.64h67.711c11.952,0 21.642,9.689 21.642,21.64z" fill="url(#color-2)"/><text transform="translate(216.22397,176.38782) scale(0.40487,0.40487)" font-size="40" xml:space="preserve" fill="#000000" fill-rule="nonzero" stroke="none" stroke-width="1" stroke-linecap="butt" stroke-linejoin="miter" stroke-miterlimit="10" stroke-dasharray="" stroke-dashoffset="0" font-family="Sans Serif" font-weight="normal" text-anchor="start" style="mix-blend-mode: normal"><tspan x="0" dy="0">Lennä</tspan><tspan x="0" dy="48px"> 300$</tspan></text></g></g></svg>