<svg version="1.1" xmlns="http://www.w3.org/2000/svg" xmlns:xlink="http://www.w3.org/1999/xlink" width="83" height="83" viewBox="0,0,83,83"><defs><linearGradient x1="197.375" y1="178.132" x2="280.375" y2="178.132" gradientUnits="userSpaceOnUse" id="color-1"><stop offset="0" stop-color="#00ff25"/><stop offset="1" stop-color="#dfff30"/></linearGradient><radialGradient cx="238.875" cy="178.1312" r="33.9434" gradientUnits="userSpaceOnUse" id="color-2"><stop offset="0" stop-color="#d7df23"/><stop offset="1" stop-color="#009444"/></radialGradient></defs><g transform="translate(-197.375,-136.632)"><g data-paper-data="{&quot;isPaintingLayer&quot;:true}" fill-rule="nonzero" stroke="none" stroke-width="1" stroke-linecap="butt" stroke-linejoin="miter" stroke-miterlimit="10" stroke-dasharray="" stroke-dashoffset="0" style="mix-blend-mode: normal"><path d="M238.875,219.632c-22.884,0 -41.5,-18.617 -41.5,-41.5c0,-22.882 18.617,-41.5 41.5,-41.5c22.884,0 41.5,18.618 41.5,41.5c0,22.882 -18.616,41.5 -41.5,41.5z" data-paper-data="{&quot;index&quot;:null}" fill="url(#color-1)"/><path d="M238.875,144.187c18.74675,0 33.944,15.19725 33.944,33.944c0,18.74675 -15.19725,33.944 -33.944,33.944c-18.74675,0 -33.944,-15.19725 -33.944,-33.944c0,-18.74675 15.19725,-33.944 33.944,-33.944z" data-paper-data="{&quot;index&quot;:null}" fill="url(#color-2)"/></g></g></svg>